<svg width="40" height="40" viewBox="0 0 40 40" fill="none" xmlns="http://www.w3.org/2000/svg">
<path d="M20.0001 11.6667C17.7899 11.6667 15.6703 12.5447 14.1075 14.1075C12.5447 15.6703 11.6667 17.7899 11.6667 20C11.6667 22.2102 12.5447 24.3298 14.1075 25.8926C15.6703 27.4554 17.7899 28.3334 20.0001 28.3334C22.2102 28.3334 24.3298 27.4554 25.8926 25.8926C27.4554 24.3298 28.3334 22.2102 28.3334 20C28.3334 17.7899 27.4554 15.6703 25.8926 14.1075C24.3298 12.5447 22.2102 11.6667 20.0001 11.6667Z" fill="#141414"/>
<path fill-rule="evenodd" clip-rule="evenodd" d="M20.0001 1.66669C20.4421 1.66669 20.866 1.84228 21.1786 2.15484C21.4912 2.4674 21.6667 2.89133 21.6667 3.33335V5.00002C21.6667 5.44205 21.4912 5.86597 21.1786 6.17853C20.866 6.49109 20.4421 6.66669 20.0001 6.66669C19.5581 6.66669 19.1341 6.49109 18.8216 6.17853C18.509 5.86597 18.3334 5.44205 18.3334 5.00002V3.33335C18.3334 2.89133 18.509 2.4674 18.8216 2.15484C19.1341 1.84228 19.5581 1.66669 20.0001 1.66669ZM5.48841 5.48835C5.80096 5.1759 6.22481 5.00038 6.66675 5.00038C7.10869 5.00038 7.53253 5.1759 7.84508 5.48835L10.3451 7.98835C10.6487 8.30269 10.8167 8.72369 10.8129 9.16069C10.8091 9.59768 10.6338 10.0157 10.3248 10.3247C10.0158 10.6337 9.59774 10.809 9.16075 10.8128C8.72375 10.8166 8.30275 10.6486 7.98841 10.345L5.48841 7.84502C5.17596 7.53247 5.00044 7.10863 5.00044 6.66669C5.00044 6.22475 5.17596 5.8009 5.48841 5.48835ZM34.5117 5.48835C34.8242 5.8009 34.9997 6.22475 34.9997 6.66669C34.9997 7.10863 34.8242 7.53247 34.5117 7.84502L32.0117 10.345C31.858 10.5042 31.6741 10.6312 31.4708 10.7185C31.2674 10.8059 31.0487 10.8518 30.8274 10.8538C30.6061 10.8557 30.3867 10.8135 30.1818 10.7297C29.977 10.6459 29.7909 10.5222 29.6344 10.3657C29.4779 10.2092 29.3542 10.0231 29.2704 9.81828C29.1866 9.61345 29.1444 9.39398 29.1463 9.17268C29.1483 8.95139 29.1942 8.73269 29.2816 8.52935C29.3689 8.32601 29.4959 8.1421 29.6551 7.98835L32.1551 5.48835C32.4676 5.1759 32.8915 5.00038 33.3334 5.00038C33.7754 5.00038 34.1992 5.1759 34.5117 5.48835ZM1.66675 20C1.66675 19.558 1.84234 19.1341 2.1549 18.8215C2.46746 18.5089 2.89139 18.3334 3.33341 18.3334H5.00008C5.44211 18.3334 5.86603 18.5089 6.17859 18.8215C6.49115 19.1341 6.66675 19.558 6.66675 20C6.66675 20.442 6.49115 20.866 6.17859 21.1785C5.86603 21.4911 5.44211 21.6667 5.00008 21.6667H3.33341C2.89139 21.6667 2.46746 21.4911 2.1549 21.1785C1.84234 20.866 1.66675 20.442 1.66675 20ZM33.3334 20C33.3334 19.558 33.509 19.1341 33.8216 18.8215C34.1341 18.5089 34.5581 18.3334 35.0001 18.3334H36.6667C37.1088 18.3334 37.5327 18.5089 37.8453 18.8215C38.1578 19.1341 38.3334 19.558 38.3334 20C38.3334 20.442 38.1578 20.866 37.8453 21.1785C37.5327 21.4911 37.1088 21.6667 36.6667 21.6667H35.0001C34.5581 21.6667 34.1341 21.4911 33.8216 21.1785C33.509 20.866 33.3334 20.442 33.3334 20ZM10.3451 29.655C10.6575 29.9676 10.8331 30.3914 10.8331 30.8334C10.8331 31.2753 10.6575 31.6991 10.3451 32.0117L7.84508 34.5117C7.53074 34.8153 7.10974 34.9833 6.67275 34.9795C6.23575 34.9757 5.81773 34.8004 5.50872 34.4914C5.1997 34.1824 5.02442 33.7643 5.02062 33.3274C5.01683 32.8904 5.18482 32.4694 5.48841 32.155L7.98841 29.655C8.30096 29.3426 8.72481 29.167 9.16675 29.167C9.60869 29.167 10.0325 29.3426 10.3451 29.655ZM29.6551 29.655C29.9676 29.3426 30.3915 29.167 30.8334 29.167C31.2754 29.167 31.6992 29.3426 32.0117 29.655L34.5117 32.155C34.8153 32.4694 34.9833 32.8904 34.9795 33.3274C34.9757 33.7643 34.8005 34.1824 34.4914 34.4914C34.1824 34.8004 33.7644 34.9757 33.3274 34.9795C32.8904 34.9833 32.4694 34.8153 32.1551 34.5117L29.6551 32.0117C29.3426 31.6991 29.1671 31.2753 29.1671 30.8334C29.1671 30.3914 29.3426 29.9676 29.6551 29.655ZM20.0001 33.3334C20.4421 33.3334 20.866 33.5089 21.1786 33.8215C21.4912 34.1341 21.6667 34.558 21.6667 35V36.6667C21.6667 37.1087 21.4912 37.5326 21.1786 37.8452C20.866 38.1578 20.4421 38.3334 20.0001 38.3334C19.5581 38.3334 19.1341 38.1578 18.8216 37.8452C18.509 37.5326 18.3334 37.1087 18.3334 36.6667V35C18.3334 34.558 18.509 34.1341 18.8216 33.8215C19.1341 33.5089 19.5581 33.3334 20.0001 33.3334Z" fill="#141414"/>
</svg>
