<svg width="50" height="50" viewBox="0 0 50 50" fill="none" xmlns="http://www.w3.org/2000/svg">
<path d="M25 16.9291C20.5559 16.9291 16.9291 20.5559 16.9291 25C16.9291 29.4441 20.5559 33.0709 25 33.0709C29.4442 33.0709 33.0709 29.4441 33.0709 25C33.0709 20.5559 29.4442 16.9291 25 16.9291ZM49.2067 25C49.2067 21.6578 49.2369 18.3459 49.0493 15.0098C48.8616 11.1348 47.9776 7.6957 45.144 4.8621C42.3043 2.02245 38.8713 1.14453 34.9963 0.95683C31.6541 0.769135 28.3422 0.799408 25.0061 0.799408C21.6639 0.799408 18.352 0.769135 15.0159 0.95683C11.1409 1.14453 7.7018 2.02851 4.86821 4.8621C2.02856 7.70175 1.15063 11.1348 0.962934 15.0098C0.775238 18.3519 0.805512 21.6639 0.805512 25C0.805512 28.3361 0.775238 31.6541 0.962934 34.9902C1.15063 38.8652 2.03461 42.3043 4.86821 45.1379C7.70785 47.9775 11.1409 48.8555 15.0159 49.0432C18.358 49.2309 21.67 49.2006 25.0061 49.2006C28.3483 49.2006 31.6602 49.2309 34.9963 49.0432C38.8713 48.8555 42.3104 47.9715 45.144 45.1379C47.9836 42.2982 48.8616 38.8652 49.0493 34.9902C49.243 31.6541 49.2067 28.3422 49.2067 25ZM25 37.4182C18.128 37.4182 12.5819 31.8721 12.5819 25C12.5819 18.1279 18.128 12.5818 25 12.5818C31.8721 12.5818 37.4182 18.1279 37.4182 25C37.4182 31.8721 31.8721 37.4182 25 37.4182ZM37.9268 14.9734C36.3223 14.9734 35.0266 13.6777 35.0266 12.0732C35.0266 10.4687 36.3223 9.17304 37.9268 9.17304C39.5313 9.17304 40.827 10.4687 40.827 12.0732C40.8275 12.4542 40.7528 12.8316 40.6072 13.1837C40.4616 13.5357 40.248 13.8556 39.9786 14.1251C39.7092 14.3945 39.3893 14.6081 39.0372 14.7536C38.6851 14.8992 38.3078 14.9739 37.9268 14.9734Z" fill="black"/>
</svg>
