<svg width="707" height="391" viewBox="0 0 707 391" fill="none" xmlns="http://www.w3.org/2000/svg">
<path d="M425.902 157.959V81.786C473.269 87.7488 508.747 103.597 532.41 129.275C556.162 155.052 568.069 190.799 568.069 236.584V390.5H425.902V237.084H496.57H497.082L497.07 236.572C496.488 211.38 490.249 192.173 478.278 179.028C466.383 165.967 448.898 158.966 425.902 157.959ZM524.654 347.953H525.154V347.453V287.438V286.938H524.654H469.336H468.836V287.438V347.453V347.953H469.336H524.654Z" fill="#141414" stroke="black"/>
<path d="M706.5 81.7197L706.558 235.136H635.91H635.398L635.41 235.647C635.965 260.839 642.185 280.045 654.144 293.186C666.025 306.244 683.504 313.24 706.5 314.24V390.434C659.133 384.485 623.655 368.644 599.993 342.965C576.24 317.189 564.333 281.434 564.333 235.636V81.7197H706.5ZM663.066 189.114H663.566V188.614V128.557V128.057H663.066H607.748H607.248V128.557V188.614V189.114H607.748H663.066Z" fill="#141414" stroke="black"/>
<path d="M389.906 244.449L389.911 244.456L389.916 244.462C394.235 249.692 397.425 255.913 399.249 262.669C399.88 265.414 400.362 270.61 400.684 278.299C401.006 285.982 401.167 296.117 401.167 308.706V390.5H332.719V287.312V287.311C332.706 278.942 332.395 272.154 331.783 266.954C331.174 261.776 330.259 258.1 328.994 256.013C327.703 253.885 325.385 252.34 322.139 251.326C318.892 250.312 314.669 249.813 309.489 249.813H308.989V250.313V390.5H235.207V79.4665H287.648C322.935 79.4665 346.762 80.9424 359.183 83.8752C371.553 86.8328 382.399 94.9065 389.43 106.413L389.43 106.413L389.438 106.424C397.23 118.429 401.167 137.674 401.167 164.25C401.16 176.342 400.462 186.437 399.077 194.542C397.69 202.654 395.622 208.735 392.9 212.827C387.47 220.995 376.704 225.977 360.407 227.642L360.327 228.622C375.038 232.615 384.854 237.913 389.906 244.449ZM336.645 205.371H337.145V204.871V129.21V128.71H336.645H303.323H302.823V129.21V204.871V205.371H303.323H336.645Z" fill="#141414" stroke="black"/>
<path d="M170.417 17.2645L170.419 17.266C187.569 28.3619 198.779 42.1103 204.098 58.5053C209.433 74.9503 212.114 100.694 212.114 135.78V170.909L123.488 170.805V63.5101V63.0101H122.988H89.6652H89.1652V63.5101V327.595V328.095H89.6652H123.065H123.565V327.595V233.335H212.114V247.448C212.024 286.304 209.445 313.78 204.406 329.93C199.343 346.073 188.22 360.21 170.983 372.334C153.777 384.435 132.557 390.5 107.294 390.5C81.0052 390.458 59.3894 385.269 42.415 374.969L42.4147 374.969C25.3901 364.655 14.1649 350.406 8.71293 332.211C3.2451 313.962 0.5 286.478 0.5 249.724L0.615971 140.077L0.115971 140.076L0.615971 140.077C0.641736 113.073 1.51794 92.8214 3.24026 79.3065C5.22124 65.1728 10.4665 51.8227 18.4802 40.5093L18.4803 40.5093L18.4862 40.5006C26.9101 28.0594 38.596 18.2813 53.5614 11.17C68.5215 4.06127 85.7129 0.5 105.147 0.5C131.623 0.5 153.368 6.10066 170.417 17.2645Z" fill="#141414" stroke="black"/>
</svg>
