<svg width="238" height="238" viewBox="0 0 238 238" fill="none" xmlns="http://www.w3.org/2000/svg">
<path fill-rule="evenodd" clip-rule="evenodd" d="M84.2917 69.4167C95.2453 69.4167 104.125 60.537 104.125 49.5833C104.125 38.6297 95.2453 29.75 84.2917 29.75C73.338 29.75 64.4583 38.6297 64.4583 49.5833C64.4583 60.537 73.338 69.4167 84.2917 69.4167ZM109.083 138.833L109.083 208.25H89.25V148.75H79.3333V208.25H59.5V148.75V138.833H44.625L54.5417 79.3333H104.125H109.083H128.917H133.875H153.708H158.667H178.5L213.208 138.833H203.292L233.042 208.25H223.125L193.375 138.833H188.417L178.5 121.833L178.5 148.75V208.25H158.667V148.75H148.75V208.25H128.917L128.917 138.833V99.1667H109.083V138.833ZM153.708 69.4167C142.755 69.4167 133.875 60.537 133.875 49.5833C133.875 38.6297 142.755 29.75 153.708 29.75C164.662 29.75 173.542 38.6297 173.542 49.5833C173.542 60.537 164.662 69.4167 153.708 69.4167Z" fill="black"/>
</svg>
